<svg width="1543" height="415" viewBox="0 0 1543 415" fill="none" xmlns="http://www.w3.org/2000/svg">
<g clip-path="url(#clip0_445_13)">
<path d="M429 205C427.4 205 427.4 203.2 429 203.2H431.2C441 203.2 442 202 442 157.8V114.6C442 70.2 441.2 68.2 431.4 68.2H429C427.4 68.2 427.4 66.4 429 66.4C434.6 66.4 451.4 67 454.4 67C457.2 67 483.8 66.4 487.4 66.4C522.8 66.4 544.4 73.8 544.4 98.4C544.4 118.8 524.8 129 493 132.2C528.4 134 549.2 144.2 549.2 167.8C549.2 190.2 534.4 205 492.6 205C489 205 457.2 204.4 454.4 204.4C451.4 204.4 434.6 205 429 205ZM469.4 68.6C466.2 71 467.2 76.8 467.2 104V131.6H481.6C504.8 131.6 516.8 121.8 516.8 98.6C516.8 74.6 504.8 68.6 484.4 68.6H469.4ZM478.6 203.2H488.4C511.6 203.2 521.8 191 521.8 167.6C521.8 146.2 513 133.8 484.2 133.8H467.2V166.6C467.2 202 468.4 203.2 478.6 203.2Z" fill="black"/>
<path d="M640.544 156C630.944 156 616.944 155.4 611.344 155.2L610.544 157.2C607.144 166.2 603.944 178.4 604.144 188C604.144 198 609.744 203.2 618.344 203.2C621.144 203.2 624.344 202.6 625.144 202.6C626.144 202.6 626.544 203 626.544 203.6C626.544 204.2 626.144 205 624.144 205C620.544 205 597.144 204.6 593.744 204.6C591.144 204.6 582.944 205 577.944 205C577.144 205 576.744 204.4 576.744 203.8C576.744 203.4 577.344 203 577.944 203H578.544C582.744 203 587.544 200.2 592.144 192C597.144 183.4 602.344 172 609.344 152.8L641.544 67.4C641.944 66.4 642.744 65.8 643.944 65.8H652.944C654.744 65.8 655.344 66.2 655.744 67.2L690.544 153.2C709.744 200.4 713.544 203 720.544 203H721.544C722.544 203 722.944 203.6 722.944 204C722.944 204.6 722.544 205 721.744 205C715.944 205 707.344 204.4 704.344 204.4C701.344 204.4 673.544 205 667.744 205C666.144 205 665.544 203.2 667.144 203.2H671.344C682.144 203.2 683.144 200 665.144 155.4L640.544 156ZM664.144 153.2L636.744 86.2L611.944 153.6L639.344 153.2L664.144 153.4V153.2Z" fill="black"/>
<path d="M750.145 205C748.545 205 748.545 203.2 750.145 203.2C754.145 203.2 756.545 203.2 758.145 203C761.145 200.8 761.945 195.8 762.545 181.4C762.745 173.4 762.945 161.2 762.945 145.2V114.6C762.945 70.2 762.145 68.2 752.345 68.2H749.945C748.345 68.2 748.345 66.4 749.945 66.4C755.545 66.4 771.345 66.8 774.345 66.8C777.145 66.8 803.745 66.4 807.145 66.4C843.745 66.4 860.545 78 860.545 98.4C860.545 116.8 841.945 128.2 809.545 132C834.745 132.2 844.345 137.8 855.345 165.4C868.945 199.8 872.145 203.2 883.145 203.2H884.345C886.145 203.2 886.145 205 884.145 205H876.745C865.345 205 857.945 205.8 854.745 205.8C849.945 205.8 846.545 204.8 843.545 201.2C839.745 196.4 836.345 187.2 830.945 171.2C820.345 138.6 813.745 134 798.745 133.4H787.945V153.2C787.945 202.4 788.945 203.2 798.745 203.2H802.745C804.345 203.2 804.345 205 802.745 205C797.145 205 778.545 204.6 775.745 204.6C772.745 204.6 751.745 205 750.145 205ZM787.945 90.2V131.2C791.545 131 796.545 131 802.745 131C817.945 131 832.545 121.4 832.545 99C832.545 78.2 822.345 68.2 803.145 68.2C800.745 68.2 795.945 68.2 793.945 68.4C788.745 68.4 787.945 69.8 787.945 90.2Z" fill="black"/>
<path d="M908.177 205C906.577 205 906.577 203.2 908.177 203.2C912.177 203.2 914.577 203.2 916.177 203C919.177 200.8 919.977 195.8 920.577 181.4C920.777 173.4 920.977 161.2 920.977 145.2V114.6C920.977 70.2 920.177 68.2 910.377 68.2H907.977C906.377 68.2 906.377 66.4 907.977 66.4C913.577 66.4 929.377 66.8 932.377 66.8C935.177 66.8 961.777 66.4 965.177 66.4C1001.78 66.4 1018.58 78 1018.58 98.4C1018.58 116.8 999.977 128.2 967.577 132C992.777 132.2 1002.38 137.8 1013.38 165.4C1026.98 199.8 1030.18 203.2 1041.18 203.2H1042.38C1044.18 203.2 1044.18 205 1042.18 205H1034.78C1023.38 205 1015.98 205.8 1012.78 205.8C1007.98 205.8 1004.58 204.8 1001.58 201.2C997.777 196.4 994.377 187.2 988.977 171.2C978.377 138.6 971.777 134 956.777 133.4H945.977V153.2C945.977 202.4 946.977 203.2 956.777 203.2H960.777C962.377 203.2 962.377 205 960.777 205C955.177 205 936.577 204.6 933.777 204.6C930.777 204.6 909.777 205 908.177 205ZM945.977 90.2V131.2C949.577 131 954.577 131 960.777 131C975.977 131 990.577 121.4 990.577 99C990.577 78.2 980.377 68.2 961.177 68.2C958.777 68.2 953.977 68.2 951.977 68.4C946.777 68.4 945.977 69.8 945.977 90.2Z" fill="black"/>
<path d="M1125.38 156C1115.78 156 1101.78 155.4 1096.18 155.2L1095.38 157.2C1091.98 166.2 1088.78 178.4 1088.98 188C1088.98 198 1094.58 203.2 1103.18 203.2C1105.98 203.2 1109.18 202.6 1109.98 202.6C1110.98 202.6 1111.38 203 1111.38 203.6C1111.38 204.2 1110.98 205 1108.98 205C1105.38 205 1081.98 204.6 1078.58 204.6C1075.98 204.6 1067.78 205 1062.78 205C1061.98 205 1061.58 204.4 1061.58 203.8C1061.58 203.4 1062.18 203 1062.78 203H1063.38C1067.58 203 1072.38 200.2 1076.98 192C1081.98 183.4 1087.18 172 1094.18 152.8L1126.38 67.4C1126.78 66.4 1127.58 65.8 1128.78 65.8H1137.78C1139.58 65.8 1140.18 66.2 1140.58 67.2L1175.38 153.2C1194.58 200.4 1198.38 203 1205.38 203H1206.38C1207.38 203 1207.78 203.6 1207.78 204C1207.78 204.6 1207.38 205 1206.58 205C1200.78 205 1192.18 204.4 1189.18 204.4C1186.18 204.4 1158.38 205 1152.58 205C1150.98 205 1150.38 203.2 1151.98 203.2H1156.18C1166.98 203.2 1167.98 200 1149.98 155.4L1125.38 156ZM1148.98 153.2L1121.58 86.2L1096.78 153.6L1124.18 153.2L1148.98 153.4V153.2Z" fill="black"/>
<path d="M1304.21 207C1261.21 207 1228.21 180 1228.21 136.4C1228.21 91.4 1264.01 64.4 1308.21 64.4C1325.81 64.4 1344.61 68.2 1356.01 72C1356.81 72.2 1357.41 72.8 1357.41 74.4C1357.81 81.2 1359.01 105.8 1359.61 120.8C1359.61 122 1358.01 122 1357.81 120.8C1355.81 105.8 1351.41 92.6 1344.81 83.2C1337.01 72.4 1325.81 66.2 1308.61 66.2C1276.01 66.2 1257.41 93.8 1257.41 135.8C1257.41 178 1272.81 205.2 1304.01 205.2C1316.21 205.2 1328.61 201.4 1335.81 196.4C1336.41 194.6 1336.41 190.2 1336.41 177.8C1336.41 174 1336.41 165.8 1336.21 165C1334.81 151.6 1332.21 147.4 1328.81 145.4C1323.41 144.4 1305.61 143.8 1286.61 143.4C1285.81 143.4 1285.81 142 1286.81 142C1313.41 142 1336.01 141.4 1361.21 139.8C1361.81 139.8 1362.41 140.4 1362.41 141.4V206C1362.41 206.4 1360.81 206.4 1360.41 206C1353.21 203.2 1347.61 200.8 1341.41 200.8C1334.01 200.8 1322.01 207 1304.21 207Z" fill="black"/>
<path d="M1460.39 156C1450.79 156 1436.79 155.4 1431.19 155.2L1430.39 157.2C1426.99 166.2 1423.79 178.4 1423.99 188C1423.99 198 1429.59 203.2 1438.19 203.2C1440.99 203.2 1444.19 202.6 1444.99 202.6C1445.99 202.6 1446.39 203 1446.39 203.6C1446.39 204.2 1445.99 205 1443.99 205C1440.39 205 1416.99 204.6 1413.59 204.6C1410.99 204.6 1402.79 205 1397.79 205C1396.99 205 1396.59 204.4 1396.59 203.8C1396.59 203.4 1397.19 203 1397.79 203H1398.39C1402.59 203 1407.39 200.2 1411.99 192C1416.99 183.4 1422.19 172 1429.19 152.8L1461.39 67.4C1461.79 66.4 1462.59 65.8 1463.79 65.8H1472.79C1474.59 65.8 1475.19 66.2 1475.59 67.2L1510.39 153.2C1529.59 200.4 1533.39 203 1540.39 203H1541.39C1542.39 203 1542.79 203.6 1542.79 204C1542.79 204.6 1542.39 205 1541.59 205C1535.79 205 1527.19 204.4 1524.19 204.4C1521.19 204.4 1493.39 205 1487.59 205C1485.99 205 1485.39 203.2 1486.99 203.2H1491.19C1501.99 203.2 1502.99 200 1484.99 155.4L1460.39 156ZM1483.99 153.2L1456.59 86.2L1431.79 153.6L1459.19 153.2L1483.99 153.4V153.2Z" fill="black"/>
<path d="M1252 41L1278.24 43H1329.76L1356 41V47L1329.76 45.5H1278.24L1252 47V41Z" fill="black"/>
<path fill-rule="evenodd" clip-rule="evenodd" d="M188.732 255.727C259.373 255.727 316.639 198.48 316.639 127.863C316.639 57.2464 259.373 1.52588e-05 188.732 1.52588e-05C118.091 1.52588e-05 60.8246 57.2464 60.8246 127.863C60.8246 198.48 118.091 255.727 188.732 255.727ZM187.922 246.016C253.645 246.016 306.924 192.755 306.924 127.054C306.924 61.3537 253.645 8.09281 187.922 8.09281C122.199 8.09281 68.9196 61.3537 68.9196 127.054C68.9196 192.755 122.199 246.016 187.922 246.016Z" fill="black"/>
<path fill-rule="evenodd" clip-rule="evenodd" d="M312.565 97.5655C315.471 109.598 316.567 121.996 315.816 134.351C400.243 131.431 382.157 127.054 358.633 165.132C345.047 187.122 354.205 186.38 303.286 182.331C284.467 221.538 246.171 251.282 197.507 254.811C195.117 332.409 190.744 414.342 188.187 414.342C185.638 414.342 181.268 332.447 178.88 254.863C130.555 251.581 91.9158 221.829 72.9767 182.331C29.0601 182.372 33.3795 188.607 18.5764 165.132C-6.75826 124.954 -17.0683 133.492 60.4586 134.423C59.7458 122.062 60.8822 109.664 63.8303 97.6383C17.0881 75.74 23.2783 83.1655 14.8604 54.0094C-0.733078 1.52588e-05 0.00946808 15.5935 83.6365 54.0895C133.646 -17.4784 242.049 -18.5523 292.781 54.0094C380.937 11.8808 369.234 8.67245 358.633 57.4089C351.978 88.0058 354.226 80.5665 312.565 97.5655ZM208.625 133.492C232.545 132.56 273.213 131.575 307.292 133.732C307.924 123.046 307.077 112.324 304.774 101.87C213.781 120.963 232.009 121.288 208.611 120.963L208.625 133.492ZM205.954 100.473C224.853 89.3855 255.957 71.6942 284.943 57.7183C237.543 -8.37498 138.232 -7.399 91.4817 57.8032C120.451 71.7727 151.527 89.4486 170.418 100.531C171.47 95.8576 172.788 91.6359 174.318 88.0058C169.897 84.8038 167.106 80.1108 167.106 74.8811C167.106 65.2315 176.607 57.4089 188.327 57.4089C200.047 57.4089 209.547 65.2315 209.547 74.8811C209.547 80.192 206.67 84.9494 202.128 88.1539C203.626 91.7358 204.918 95.8863 205.954 100.473ZM68.9976 133.8C103.099 131.636 143.822 132.622 167.762 133.554L167.771 121.026C144.373 121.351 143.559 120.963 71.6043 101.931C69.2692 112.383 68.392 123.108 68.9976 133.8ZM170.401 154.224C150.823 165.479 123.276 172.603 82.4635 182.422C100.613 217.177 135.465 243.042 178.623 246.288C177.851 219.649 177.331 193.904 177.22 172.603C174.415 168.001 172.073 161.681 170.401 154.224ZM199.164 172.603C199.054 193.886 198.535 219.606 197.764 246.221C241.217 242.76 275.711 216.868 293.737 182.354C225.005 165.132 225.544 165.406 205.996 154.171C204.323 161.651 201.976 167.99 199.164 172.603Z" fill="black"/>
</g>
<defs>
<clipPath id="clip0_445_13">
<rect width="1543" height="415" fill="white"/>
</clipPath>
</defs>
</svg>
