<svg width="464" height="509" viewBox="0 0 464 509" fill="none" xmlns="http://www.w3.org/2000/svg">
<path fill-rule="evenodd" clip-rule="evenodd" d="M231.513 313.695C318.167 313.695 388.414 243.472 388.414 156.847C388.414 70.2229 318.167 1.20635e-05 231.513 1.20635e-05C144.859 1.20635e-05 74.6122 70.2229 74.6122 156.847C74.6122 243.472 144.859 313.695 231.513 313.695ZM230.52 301.782C311.141 301.782 376.497 236.448 376.497 155.855C376.497 75.2613 311.141 9.92726 230.52 9.92726C149.899 9.92726 84.5422 75.2613 84.5422 155.855C84.5422 236.448 149.899 301.782 230.52 301.782Z" fill="#fff"/>
<path fill-rule="evenodd" clip-rule="evenodd" d="M383.417 119.682C386.982 134.441 388.326 149.65 387.405 164.806C490.97 161.224 468.784 155.855 439.928 202.563C423.262 229.539 434.496 228.628 372.035 223.661C348.95 271.756 301.973 308.243 242.278 312.571C239.346 407.759 233.982 508.265 230.845 508.265C227.718 508.265 222.358 407.805 219.428 312.636C160.149 308.609 112.751 272.112 89.5189 223.661C35.6474 223.712 40.9459 231.361 22.7872 202.563C-8.29021 153.279 -20.9373 163.752 74.1633 164.893C73.2889 149.731 74.683 134.522 78.2993 119.771C20.9616 92.9086 28.5551 102.017 18.229 66.2522C-0.899254 0 0.0116119 19.1282 102.595 66.3505C163.94 -21.4404 296.916 -22.7577 359.148 66.2522C467.287 14.5739 452.932 10.6383 439.928 70.4222C431.764 107.955 434.521 98.8293 383.417 119.682ZM255.916 163.752C285.258 162.609 335.144 161.4 376.948 164.047C377.724 150.938 376.684 137.786 373.86 124.962C262.241 148.383 284.6 148.782 255.898 148.383L255.916 163.752ZM252.639 123.248C275.823 109.647 313.976 87.9458 349.533 70.8018C291.389 -10.2734 169.566 -9.07623 112.219 70.906C147.755 88.0421 185.875 109.725 209.048 123.319C210.339 117.586 211.956 112.408 213.833 107.955C208.408 104.027 204.985 98.2702 204.985 91.8551C204.985 80.018 216.64 70.4222 231.016 70.4222C245.393 70.4222 257.047 80.018 257.047 91.8551C257.047 98.3698 253.517 104.206 247.946 108.136C249.783 112.53 251.368 117.622 252.639 123.248ZM84.6379 164.13C126.47 161.475 176.424 162.685 205.79 163.828L205.801 148.46C177.099 148.859 176.1 148.383 87.8355 125.037C84.9711 137.858 83.8951 151.014 84.6379 164.13ZM209.028 189.183C185.011 202.989 151.22 211.728 101.156 223.774C123.419 266.406 166.172 298.134 219.113 302.116C218.166 269.439 217.528 237.858 217.392 211.728C213.951 206.084 211.078 198.331 209.028 189.183ZM244.31 211.728C244.175 237.836 243.539 269.386 242.593 302.034C295.896 297.789 338.209 266.027 360.321 223.689C276.009 202.563 276.67 202.9 252.691 189.118C250.639 198.294 247.76 206.07 244.31 211.728Z" fill="#fff"/>
</svg>
