<svg width="1283" height="184" viewBox="0 0 1283 184" fill="none" xmlns="http://www.w3.org/2000/svg">
<g clip-path="url(#clip0_445_3)">
<path d="M1215.59 124.599L1187.31 125.288C1184.85 125.288 1181.94 125.288 1178.57 125.288C1175.2 125.135 1166.92 124.829 1153.73 124.369L1152.81 126.668C1150.51 132.954 1148.67 139.24 1147.29 145.526C1145.91 151.811 1145.3 157.331 1145.45 162.083C1145.45 167.602 1146.83 171.895 1149.59 174.961C1152.51 178.028 1156.57 179.561 1161.78 179.561C1162.55 179.561 1163.31 179.561 1164.08 179.561C1165 179.408 1166.23 179.254 1167.76 179.101C1168.37 178.948 1168.76 178.871 1168.91 178.871C1169.22 178.871 1169.45 178.871 1169.6 178.871C1170.06 178.871 1170.44 179.024 1170.75 179.331C1171.06 179.484 1171.21 179.714 1171.21 180.021C1171.21 180.481 1170.98 180.864 1170.52 181.171C1170.06 181.477 1169.37 181.631 1168.45 181.631C1167.68 181.631 1166.15 181.631 1163.85 181.631C1161.55 181.631 1157.1 181.554 1150.51 181.401C1144.23 181.247 1139.93 181.171 1137.63 181.171C1135.49 181.171 1134.11 181.171 1133.49 181.171C1133.04 181.171 1132.35 181.171 1131.43 181.171C1130.66 181.171 1129.2 181.247 1127.06 181.401C1123.68 181.554 1121.15 181.631 1119.47 181.631C1117.93 181.631 1116.55 181.631 1115.33 181.631C1114.87 181.631 1114.56 181.554 1114.41 181.401C1114.1 181.094 1113.95 180.711 1113.95 180.251C1113.95 179.944 1114.1 179.714 1114.41 179.561C1114.71 179.408 1115.02 179.331 1115.33 179.331H1116.02C1118.78 179.331 1121.46 178.258 1124.07 176.111C1126.83 173.965 1129.36 170.822 1131.66 166.683C1134.72 161.317 1137.86 155.031 1141.08 147.825C1144.3 140.62 1147.75 131.881 1151.43 121.609L1188.46 23.4129C1188.76 22.7997 1189.15 22.3397 1189.61 22.0331C1190.07 21.7265 1190.6 21.5732 1191.22 21.5732H1201.57C1202.49 21.5732 1203.18 21.7265 1203.64 22.0331C1204.09 22.1864 1204.48 22.5697 1204.78 23.1829L1244.8 122.069C1247.56 128.968 1250.09 135.024 1252.39 140.236C1254.69 145.449 1256.68 150.048 1258.37 154.034C1262.81 163.54 1266.42 170.132 1269.18 173.812C1272.09 177.491 1275.46 179.331 1279.29 179.331H1280.44C1280.9 179.331 1281.29 179.484 1281.59 179.791C1281.9 179.944 1282.05 180.174 1282.05 180.481C1282.05 180.787 1281.9 181.094 1281.59 181.401C1281.44 181.554 1281.13 181.631 1280.67 181.631C1279.29 181.631 1277.68 181.631 1275.84 181.631C1274.01 181.477 1271.25 181.324 1267.57 181.171C1265.27 181.017 1263.66 180.941 1262.74 180.941C1261.82 180.941 1261.13 180.941 1260.67 180.941C1260.21 180.941 1258.98 180.941 1256.99 180.941C1254.99 180.941 1251.08 181.017 1245.26 181.171C1236.21 181.324 1229.85 181.477 1226.17 181.631C1222.49 181.631 1219.96 181.631 1218.58 181.631C1217.66 181.631 1217.05 181.324 1216.74 180.711C1216.59 179.944 1216.97 179.561 1217.89 179.561H1222.72C1228.24 179.561 1231.15 177.874 1231.46 174.502C1231.92 170.975 1230.46 164.383 1227.09 154.724C1225.87 151.198 1224.33 146.982 1222.49 142.076C1220.65 137.17 1218.35 131.344 1215.59 124.599ZM1214.44 122.299V122.069L1182.94 45.0298L1154.42 122.529L1185.93 122.069L1214.44 122.299Z" fill="black"/>
<path d="M1038.08 179.331C1031.03 181.171 1025.28 182.397 1020.83 183.01C1016.39 183.624 1012.02 183.93 1007.72 183.93C981.968 183.93 960.964 176.495 944.713 161.623C928.462 146.599 920.337 126.975 920.337 102.752C920.337 78.0685 928.922 58.138 946.093 42.9601C963.417 27.629 985.494 19.9634 1012.32 19.9634C1021.22 19.9634 1030.64 20.8066 1040.61 22.493C1050.58 24.0261 1059.47 26.0959 1067.29 28.7022C1067.9 28.8555 1068.28 29.1621 1068.44 29.622C1068.74 30.082 1068.9 30.6952 1068.9 31.4618C1069.2 35.9078 1069.59 43.9567 1070.05 55.6083C1070.66 67.26 1071.12 76.9953 1071.43 84.8142C1071.43 85.5808 1071.12 85.9641 1070.51 85.9641C1069.89 85.9641 1069.51 85.5808 1069.36 84.8142C1068.13 75.9221 1066.21 67.7966 1063.61 60.4377C1061.15 53.0787 1058.09 46.7929 1054.41 41.5803C1049.66 34.9879 1043.83 30.082 1036.93 26.8624C1030.18 23.6429 1022.14 22.0331 1012.78 22.0331C994.54 22.0331 980.128 29.2388 969.55 43.65C959.125 57.908 953.912 77.3786 953.912 102.062C953.912 127.512 958.511 147.212 967.71 161.163C977.062 174.961 990.324 181.86 1007.49 181.86C1014.24 181.86 1020.91 180.941 1027.5 179.101C1034.25 177.261 1039.77 174.808 1044.06 171.742C1044.37 170.975 1044.52 169.519 1044.52 167.373C1044.67 165.073 1044.75 159.4 1044.75 150.355C1044.75 145.296 1044.75 141.693 1044.75 139.546C1044.75 137.247 1044.67 135.944 1044.52 135.637C1043.91 129.045 1042.91 123.985 1041.53 120.459C1040.3 116.933 1038.46 114.48 1036.01 113.1C1033.4 112.64 1028.11 112.257 1020.14 111.95C1012.17 111.49 1001.29 111.107 987.487 110.801C987.027 110.801 986.797 110.571 986.797 110.111C986.797 109.497 987.104 109.191 987.717 109.191C1003.66 109.191 1018.46 109.037 1032.1 108.731C1045.75 108.271 1059.47 107.581 1073.27 106.661C1073.57 106.661 1073.88 106.891 1074.18 107.351C1074.49 107.658 1074.64 108.041 1074.64 108.501V182.78C1074.64 182.934 1074.26 183.01 1073.5 183.01C1072.88 183.01 1072.5 182.934 1072.35 182.78C1065.14 180.021 1060.23 178.334 1057.63 177.721C1055.17 177.108 1052.8 176.801 1050.5 176.801C1049.27 176.801 1047.82 176.954 1046.13 177.261C1044.6 177.568 1041.91 178.258 1038.08 179.331Z" fill="black"/>
<path d="M830.389 124.599L802.103 125.288C799.65 125.288 796.737 125.288 793.364 125.288C789.991 125.135 781.713 124.829 768.528 124.369L767.608 126.668C765.308 132.954 763.468 139.24 762.089 145.526C760.709 151.811 760.096 157.331 760.249 162.083C760.249 167.602 761.629 171.895 764.388 174.961C767.301 178.028 771.364 179.561 776.577 179.561C777.343 179.561 778.11 179.561 778.876 179.561C779.796 179.408 781.023 179.254 782.556 179.101C783.169 178.948 783.552 178.871 783.706 178.871C784.012 178.871 784.242 178.871 784.396 178.871C784.855 178.871 785.239 179.024 785.545 179.331C785.852 179.484 786.005 179.714 786.005 180.021C786.005 180.481 785.775 180.864 785.315 181.171C784.855 181.477 784.166 181.631 783.246 181.631C782.479 181.631 780.946 181.631 778.646 181.631C776.347 181.631 771.901 181.554 765.308 181.401C759.022 181.247 754.73 181.171 752.43 181.171C750.284 181.171 748.904 181.171 748.291 181.171C747.831 181.171 747.141 181.171 746.221 181.171C745.454 181.171 743.998 181.247 741.852 181.401C738.479 181.554 735.949 181.631 734.263 181.631C732.73 181.631 731.35 181.631 730.123 181.631C729.663 181.631 729.357 181.554 729.203 181.401C728.897 181.094 728.743 180.711 728.743 180.251C728.743 179.944 728.897 179.714 729.203 179.561C729.51 179.408 729.817 179.331 730.123 179.331H730.813C733.573 179.331 736.256 178.258 738.862 176.111C741.622 173.965 744.151 170.822 746.451 166.683C749.517 161.317 752.66 155.031 755.88 147.825C759.099 140.62 762.549 131.881 766.228 121.609L803.253 23.4129C803.559 22.7997 803.943 22.3397 804.403 22.0331C804.863 21.7265 805.399 21.5732 806.012 21.5732H816.361C817.281 21.5732 817.971 21.7265 818.431 22.0331C818.891 22.1864 819.274 22.5697 819.581 23.1829L859.595 122.069C862.354 128.968 864.884 135.024 867.184 140.236C869.483 145.449 871.476 150.048 873.163 154.034C877.609 163.54 881.212 170.132 883.971 173.812C886.884 177.491 890.257 179.331 894.09 179.331H895.24C895.7 179.331 896.083 179.484 896.39 179.791C896.696 179.944 896.85 180.174 896.85 180.481C896.85 180.787 896.696 181.094 896.39 181.401C896.236 181.554 895.93 181.631 895.47 181.631C894.09 181.631 892.48 181.631 890.64 181.631C888.801 181.477 886.041 181.324 882.362 181.171C880.062 181.017 878.452 180.941 877.532 180.941C876.612 180.941 875.923 180.941 875.463 180.941C875.003 180.941 873.776 180.941 871.783 180.941C869.79 180.941 865.881 181.017 860.055 181.171C851.009 181.324 844.647 181.477 840.967 181.631C837.288 181.631 834.758 181.631 833.379 181.631C832.459 181.631 831.845 181.324 831.539 180.711C831.386 179.944 831.769 179.561 832.689 179.561H837.518C843.037 179.561 845.95 177.874 846.257 174.502C846.717 170.975 845.26 164.383 841.887 154.724C840.661 151.198 839.128 146.982 837.288 142.076C835.448 137.17 833.149 131.344 830.389 124.599ZM829.239 122.299V122.069L797.734 45.0298L769.218 122.529L800.723 122.069L829.239 122.299Z" fill="black"/>
<path d="M563.393 181.401C559.101 181.554 556.264 181.631 554.884 181.631C553.505 181.631 552.661 181.631 552.355 181.631C551.435 181.631 550.975 181.324 550.975 180.711C550.975 179.944 551.435 179.561 552.355 179.561C555.574 179.561 557.721 179.561 558.794 179.561C560.02 179.561 560.94 179.484 561.554 179.331C563.24 178.104 564.39 175.881 565.003 172.662C565.77 169.289 566.306 163.233 566.613 154.494C566.766 148.515 566.843 141.999 566.843 134.947C566.996 127.895 567.073 120.536 567.073 112.87V77.6852C567.073 69.8663 566.996 63.6572 566.843 59.0579C566.843 54.4585 566.843 50.5491 566.843 47.3295C566.383 38.1308 565.463 31.9984 564.083 28.9321C562.857 25.8659 559.79 24.3328 554.884 24.3328H552.125C551.205 24.3328 550.745 24.0262 550.745 23.4129C550.745 22.6464 551.205 22.2631 552.125 22.2631C553.351 22.2631 555.191 22.2631 557.644 22.2631C560.25 22.2631 564.313 22.3397 569.832 22.493C573.665 22.6463 576.195 22.723 577.421 22.723C578.801 22.723 579.721 22.723 580.181 22.723C580.794 22.723 582.174 22.723 584.32 22.723C586.62 22.723 590.989 22.6463 597.428 22.493C604.941 22.3397 610 22.2631 612.606 22.2631C615.366 22.2631 617.129 22.2631 617.896 22.2631C638.286 22.2631 653.617 25.406 663.889 31.6917C674.161 37.8242 679.297 46.9462 679.297 59.0579C679.297 69.3297 674.238 77.7619 664.119 84.3543C654.154 90.9467 639.666 95.3927 620.655 97.6924C635.986 97.8457 647.101 100.529 654 105.741C660.899 110.954 667.339 121.072 673.318 136.097C675.924 142.536 678.07 147.902 679.757 152.195C681.597 156.334 683.206 159.86 684.586 162.773C687.806 169.212 690.719 173.658 693.325 176.111C696.084 178.411 700.071 179.561 705.283 179.561H706.663C707.736 179.561 708.196 179.944 708.043 180.711C708.043 181.324 707.506 181.631 706.433 181.631H697.924C695.011 181.631 692.022 181.631 688.956 181.631C686.043 181.784 682.44 182.014 678.147 182.32C676.307 182.474 675.004 182.55 674.238 182.55C673.624 182.55 673.088 182.55 672.628 182.55C669.562 182.55 667.032 182.167 665.039 181.401C663.046 180.481 661.283 179.101 659.75 177.261C657.91 174.961 655.993 171.512 654 166.913C652.007 162.16 649.094 154.111 645.262 142.766C643.115 136.02 641.046 130.348 639.053 125.748C637.213 120.996 635.373 117.01 633.533 113.79C630.467 108.731 627.094 105.128 623.415 102.982C619.889 100.835 614.829 99.6088 608.237 99.3022H595.819V122.069C595.819 126.822 595.819 130.961 595.819 134.487C595.819 137.86 595.819 140.926 595.819 143.686C595.972 148.745 596.125 153.038 596.279 156.564C596.432 159.937 596.585 162.85 596.739 165.303C597.352 170.822 598.272 174.578 599.498 176.571C600.725 178.564 603.638 179.561 608.237 179.561H612.836C613.756 179.561 614.216 179.944 614.216 180.711C614.216 181.324 613.756 181.631 612.836 181.631C611.456 181.631 609.387 181.631 606.627 181.631C603.868 181.477 599.268 181.401 592.829 181.401C588.69 181.247 585.93 181.171 584.55 181.171C583.17 181.171 582.251 181.171 581.791 181.171C581.024 181.171 579.414 181.171 576.961 181.171C574.508 181.171 569.986 181.247 563.393 181.401ZM602.718 24.5627C599.498 24.5627 597.505 26.0192 596.739 28.9321C596.125 31.6917 595.819 38.5908 595.819 49.6292V96.7725C597.352 96.6192 599.192 96.5425 601.338 96.5425C603.484 96.5425 607.317 96.5425 612.836 96.5425C623.108 96.5425 631.387 93.2464 637.673 86.654C643.959 80.0616 647.101 71.0928 647.101 59.7478C647.101 47.9428 644.265 39.1273 638.593 33.3015C632.92 27.3224 624.488 24.3328 613.296 24.3328C610.23 24.3328 607.854 24.3328 606.167 24.3328C604.634 24.3328 603.484 24.4094 602.718 24.5627Z" fill="black"/>
<path d="M381.683 181.401C377.39 181.554 374.554 181.631 373.174 181.631C371.794 181.631 370.951 181.631 370.645 181.631C369.725 181.631 369.265 181.324 369.265 180.711C369.265 179.944 369.725 179.561 370.645 179.561C373.864 179.561 376.01 179.561 377.084 179.561C378.31 179.561 379.23 179.484 379.843 179.331C381.53 178.104 382.68 175.881 383.293 172.662C384.059 169.289 384.596 163.233 384.903 154.494C385.056 148.515 385.133 141.999 385.133 134.947C385.286 127.895 385.362 120.536 385.362 112.87V77.6852C385.362 69.8663 385.286 63.6572 385.133 59.0579C385.133 54.4585 385.133 50.5491 385.133 47.3295C384.673 38.1308 383.753 31.9984 382.373 28.9321C381.146 25.8659 378.08 24.3328 373.174 24.3328H370.415C369.495 24.3328 369.035 24.0262 369.035 23.4129C369.035 22.6464 369.495 22.2631 370.415 22.2631C371.641 22.2631 373.481 22.2631 375.934 22.2631C378.54 22.2631 382.603 22.3397 388.122 22.493C391.955 22.6463 394.485 22.723 395.711 22.723C397.091 22.723 398.011 22.723 398.471 22.723C399.084 22.723 400.464 22.723 402.61 22.723C404.91 22.723 409.279 22.6463 415.718 22.493C423.23 22.3397 428.29 22.2631 430.896 22.2631C433.656 22.2631 435.419 22.2631 436.185 22.2631C456.576 22.2631 471.907 25.406 482.179 31.6917C492.451 37.8242 497.587 46.9462 497.587 59.0579C497.587 69.3297 492.527 77.7619 482.409 84.3543C472.443 90.9467 457.956 95.3927 438.945 97.6924C454.276 97.8457 465.391 100.529 472.29 105.741C479.189 110.954 485.628 121.072 491.607 136.097C494.214 142.536 496.36 147.902 498.047 152.195C499.886 156.334 501.496 159.86 502.876 162.773C506.095 169.212 509.008 173.658 511.615 176.111C514.374 178.411 518.36 179.561 523.573 179.561H524.953C526.026 179.561 526.486 179.944 526.332 180.711C526.332 181.324 525.796 181.631 524.723 181.631H516.214C513.301 181.631 510.311 181.631 507.245 181.631C504.332 181.784 500.729 182.014 496.437 182.32C494.597 182.474 493.294 182.55 492.527 182.55C491.914 182.55 491.377 182.55 490.918 182.55C487.851 182.55 485.322 182.167 483.329 181.401C481.336 180.481 479.572 179.101 478.039 177.261C476.2 174.961 474.283 171.512 472.29 166.913C470.297 162.16 467.384 154.111 463.551 142.766C461.405 136.02 459.335 130.348 457.342 125.748C455.503 120.996 453.663 117.01 451.823 113.79C448.757 108.731 445.384 105.128 441.704 102.982C438.178 100.835 433.119 99.6088 426.527 99.3022H414.108V122.069C414.108 126.822 414.108 130.961 414.108 134.487C414.108 137.86 414.108 140.926 414.108 143.686C414.262 148.745 414.415 153.038 414.568 156.564C414.722 159.937 414.875 162.85 415.028 165.303C415.642 170.822 416.561 174.578 417.788 176.571C419.014 178.564 421.927 179.561 426.527 179.561H431.126C432.046 179.561 432.506 179.944 432.506 180.711C432.506 181.324 432.046 181.631 431.126 181.631C429.746 181.631 427.676 181.631 424.917 181.631C422.157 181.477 417.558 181.401 411.119 181.401C406.979 181.247 404.22 181.171 402.84 181.171C401.46 181.171 400.54 181.171 400.08 181.171C399.314 181.171 397.704 181.171 395.251 181.171C392.798 181.171 388.275 181.247 381.683 181.401ZM421.007 24.5627C417.788 24.5627 415.795 26.0192 415.028 28.9321C414.415 31.6917 414.108 38.5908 414.108 49.6292V96.7725C415.642 96.6192 417.481 96.5425 419.628 96.5425C421.774 96.5425 425.607 96.5425 431.126 96.5425C441.398 96.5425 449.677 93.2464 455.962 86.654C462.248 80.0616 465.391 71.0928 465.391 59.7478C465.391 47.9428 462.555 39.1273 456.882 33.3015C451.21 27.3224 442.778 24.3328 431.586 24.3328C428.52 24.3328 426.143 24.3328 424.457 24.3328C422.924 24.3328 421.774 24.4094 421.007 24.5627Z" fill="black"/>
<path d="M272.907 124.599L244.621 125.288C242.168 125.288 239.255 125.288 235.882 125.288C232.509 125.135 224.23 124.829 211.045 124.369L210.126 126.668C207.826 132.954 205.986 139.24 204.606 145.526C203.227 151.811 202.613 157.331 202.767 162.083C202.767 167.602 204.146 171.895 206.906 174.961C209.819 178.028 213.882 179.561 219.094 179.561C219.861 179.561 220.627 179.561 221.394 179.561C222.314 179.408 223.54 179.254 225.073 179.101C225.687 178.948 226.07 178.871 226.223 178.871C226.53 178.871 226.76 178.871 226.913 178.871C227.373 178.871 227.756 179.024 228.063 179.331C228.37 179.484 228.523 179.714 228.523 180.021C228.523 180.481 228.293 180.864 227.833 181.171C227.373 181.477 226.683 181.631 225.763 181.631C224.997 181.631 223.464 181.631 221.164 181.631C218.864 181.631 214.418 181.554 207.826 181.401C201.54 181.247 197.247 181.171 194.948 181.171C192.801 181.171 191.422 181.171 190.808 181.171C190.348 181.171 189.659 181.171 188.739 181.171C187.972 181.171 186.516 181.247 184.369 181.401C180.996 181.554 178.467 181.631 176.78 181.631C175.247 181.631 173.867 181.631 172.641 181.631C172.181 181.631 171.874 181.554 171.721 181.401C171.414 181.094 171.261 180.711 171.261 180.251C171.261 179.944 171.414 179.714 171.721 179.561C172.028 179.408 172.334 179.331 172.641 179.331H173.331C176.09 179.331 178.773 178.258 181.38 176.111C184.139 173.965 186.669 170.822 188.969 166.683C192.035 161.317 195.178 155.031 198.397 147.825C201.617 140.62 205.066 131.881 208.746 121.609L245.771 23.4129C246.077 22.7997 246.46 22.3397 246.92 22.0331C247.38 21.7265 247.917 21.5732 248.53 21.5732H258.879C259.799 21.5732 260.488 21.7265 260.948 22.0331C261.408 22.1864 261.792 22.5697 262.098 23.1829L302.113 122.069C304.872 128.968 307.402 135.024 309.701 140.236C312.001 145.449 313.994 150.048 315.681 154.034C320.127 163.54 323.73 170.132 326.489 173.812C329.402 177.491 332.775 179.331 336.608 179.331H337.758C338.217 179.331 338.601 179.484 338.907 179.791C339.214 179.944 339.367 180.174 339.367 180.481C339.367 180.787 339.214 181.094 338.907 181.401C338.754 181.554 338.447 181.631 337.988 181.631C336.608 181.631 334.998 181.631 333.158 181.631C331.318 181.477 328.559 181.324 324.879 181.171C322.58 181.017 320.97 180.941 320.05 180.941C319.13 180.941 318.44 180.941 317.98 180.941C317.52 180.941 316.294 180.941 314.301 180.941C312.308 180.941 308.398 181.017 302.572 181.171C293.527 181.324 287.165 181.477 283.485 181.631C279.806 181.631 277.276 181.631 275.896 181.631C274.976 181.631 274.363 181.324 274.057 180.711C273.903 179.944 274.287 179.561 275.206 179.561H280.036C285.555 179.561 288.468 177.874 288.774 174.502C289.234 170.975 287.778 164.383 284.405 154.724C283.179 151.198 281.645 146.982 279.806 142.076C277.966 137.17 275.666 131.344 272.907 124.599ZM271.757 122.299V122.069L240.251 45.0298L211.735 122.529L243.241 122.069L271.757 122.299Z" fill="black"/>
<path d="M19.7772 181.171C13.9514 181.324 9.73529 181.477 7.12899 181.631C4.52269 181.631 2.6063 181.631 1.3798 181.631C0.459935 181.631 0 181.324 0 180.711C0 179.944 0.459935 179.561 1.3798 179.561H3.90945C8.35548 179.561 11.1917 178.718 12.4182 177.031C13.798 175.191 14.7179 171.895 15.1779 167.143C15.4845 164.843 15.7144 162.16 15.8678 159.094C16.0211 155.874 16.1744 151.888 16.3277 147.135C16.3277 144.682 16.3277 141.846 16.3277 138.627C16.3277 135.407 16.3277 131.651 16.3277 127.358V77.6852C16.3277 69.8663 16.251 63.6572 16.0977 59.0579C16.0977 54.4585 16.0977 50.5491 16.0977 47.3295C15.6378 38.1308 14.7179 31.9984 13.3381 28.9321C12.1116 25.8659 9.04539 24.3328 4.13941 24.3328H1.3798C0.459935 24.3328 0 24.0262 0 23.4129C0 22.6464 0.459935 22.2631 1.3798 22.2631C2.6063 22.2631 4.52269 22.3397 7.12899 22.493C9.73529 22.493 13.9514 22.5697 19.7772 22.723C23.7633 22.8763 26.4463 22.953 27.8261 22.953C29.2059 22.953 30.1257 22.953 30.5857 22.953C31.0456 22.953 32.3488 22.953 34.4951 22.953C36.7948 22.7997 41.1642 22.723 47.6033 22.723C55.2688 22.5697 60.4814 22.493 63.241 22.493C66.0007 22.3397 67.7637 22.2631 68.5303 22.2631C91.527 22.2631 108.161 25.2526 118.433 31.2318C128.858 37.0576 134.071 46.333 134.071 59.0579C134.071 70.0963 129.088 78.8351 119.123 85.2741C109.311 91.7132 94.5933 95.9293 74.9694 97.9224C96.8929 98.9955 113.144 102.905 123.722 109.651C134.301 116.396 139.59 126.132 139.59 138.857C139.59 153.268 134.148 164 123.263 171.052C112.531 178.104 96.2797 181.631 74.5095 181.631C73.7429 181.631 71.7498 181.631 68.5303 181.631C65.3108 181.477 59.2549 181.324 50.3629 181.171C42.6973 181.171 37.5613 181.171 34.9551 181.171C32.5021 181.017 31.0456 180.941 30.5857 180.941C30.1257 180.941 29.2059 180.941 27.8261 180.941C26.4463 180.941 23.7633 181.017 19.7772 181.171ZM65.0808 24.7927H47.8332C46.6067 25.7126 45.8402 27.2457 45.5336 29.3921C45.2269 31.5384 45.0736 36.5977 45.0736 44.5699C45.2269 52.8487 45.3036 57.9847 45.3036 59.9777C45.3036 61.8175 45.3036 63.6572 45.3036 65.497V97.2325H61.8612C75.6593 97.2325 85.8545 94.1662 92.4469 88.0338C99.0393 81.748 102.336 72.166 102.336 59.2878C102.336 47.1762 99.4992 38.4375 93.8267 33.0715C88.1542 27.5523 78.5722 24.7927 65.0808 24.7927ZM45.7635 162.543C46.2235 169.289 47.1433 173.812 48.5231 176.111C49.9029 178.411 53.1991 179.561 58.4117 179.561H69.6801C82.7116 179.561 92.3703 176.188 98.656 169.442C104.942 162.697 108.085 152.425 108.085 138.627C108.085 124.829 104.635 114.94 97.7362 108.961C90.8371 102.828 79.8754 99.7621 64.8508 99.7621H45.3036V137.477C45.3036 143.763 45.3036 148.898 45.3036 152.885C45.4569 156.717 45.6102 159.937 45.7635 162.543Z" fill="black"/>
<path d="M953.688 0L983.962 2.30719H1013.11H1043.39L1073.66 0V6.92157L1043.39 5.19118H1013.11H983.962L953.688 6.92157V0Z" fill="black"/>
</g>
<defs>
<clipPath id="clip0_445_3">
<rect width="1283" height="184" fill="white"/>
</clipPath>
</defs>
</svg>
